<?xml version="1.0" encoding="UTF-8"?>
<!-- Generated by Pixelmator Pro 3.7.1 -->
<svg width="459" height="423" viewBox="0 0 459 423" xmlns="http://www.w3.org/2000/svg">
    <path id="Path" fill="#fefefe" stroke="none" d="M 88.622292 118.595856 C 130.133652 84.089691 171.349625 49.784882 212.622681 15.548798 C 222.697693 7.191589 236.977036 7.62149 246.971939 15.871765 C 270.989197 35.696838 295.146881 55.352051 319.264282 75.055634 C 320.762604 76.279755 322.403137 77.329803 325.153748 79.305847 C 325.155182 70.332947 325.158295 62.596985 325.156982 54.861023 C 325.156219 50.361755 324.994781 45.85611 325.180084 41.364685 C 325.452423 34.76059 329.972992 29.937347 336.534698 29.787506 C 347.026947 29.547882 357.534149 29.577942 368.026031 29.844757 C 374.959717 30.021088 379.177551 34.950226 379.195953 42.522369 C 379.258453 68.353455 379.331787 94.185852 379.104492 120.015045 C 379.065094 124.500763 380.496094 127.329346 383.92392 130.089294 C 403.901459 146.174164 423.735809 162.437469 443.559021 178.712982 C 453.467377 186.848114 454.299927 193.985703 446.756134 204.530396 C 444.529602 207.642639 442.406464 210.875031 439.83371 213.684006 C 434.129089 219.912155 427.285553 220.915634 420.068115 216.469482 C 414.596436 213.098724 409.423035 209.243774 403.115631 204.917572 C 403.11499 208.81601 403.113556 211.730927 403.114197 214.645844 C 403.124908 266.141602 402.684418 317.643158 403.340851 369.130615 C 403.660034 394.160278 385.28537 411.536346 365.263763 414.485901 C 363.459229 414.75174 361.625519 414.957855 359.805267 414.958008 C 274.478058 414.964478 189.150787 414.882446 103.823769 414.995392 C 90.909676 415.012482 79.528854 411.52536 69.928345 402.837921 C 60.315422 394.13916 56.234131 383.017609 56.239349 370.252716 C 56.260269 319.090118 56.306179 267.92749 56.342384 216.764877 C 56.344944 213.166061 56.343784 209.567245 56.34454 204.850082 C 51.450096 208.299744 47.402195 211.075455 43.435669 213.963135 C 32.55238 221.886093 25.669369 221.04097 17.495277 210.672348 C 15.743161 208.449844 14.014608 206.204453 12.372491 203.900299 C 5.726614 194.574768 6.78117 186.247055 15.563041 178.94426 C 25.675806 170.534622 35.825188 162.169006 45.966969 153.794342 C 60.089962 142.132172 74.220612 130.479279 88.622292 118.595856 M 244.342407 328.934753 C 254.047104 325.609589 264.233948 323.267822 273.371918 318.787109 C 310.714508 300.476501 331.51593 256.501923 321.743958 216.006714 C 312.407623 177.316925 288.38678 151.701324 249.247025 143.187317 C 209.812698 134.609161 177.588959 148.931458 153.575333 180.51152 C 130.546097 210.796906 129.634354 251.638672 149.611954 284.804932 C 168.743179 316.566071 206.405991 334.319244 244.342407 328.934753 Z"/>
    <path id="path1" fill="#f7f7f7" stroke="none" d="M 174.7491 268.158478 C 177.478882 271.758209 180.067993 275.010132 182.560593 278.334473 C 185.648117 282.45224 185.640717 285.974304 182.651077 288.55304 C 179.649841 291.141785 176.113007 290.587585 172.61792 286.980957 C 149.170288 262.784668 145.432419 222.602753 163.756561 194.159149 C 179.674301 169.451004 202.210022 156.37027 231.540146 156.349152 C 246.158859 156.338593 260.174133 160.095734 271.967865 169.420013 C 271.912231 170.016922 272.002533 170.429962 271.836365 170.63147 C 264.960907 178.97052 264.958038 178.968201 255.100632 174.665115 C 214.989685 157.155273 167.673355 186.834152 165.891632 230.548813 C 165.350754 243.819748 167.571091 256.365326 174.7491 268.158478 Z"/>
    <path id="path2" fill="#f6f6f6" stroke="none" d="M 297.932526 271.93277 C 294.082581 277.373932 290.570038 282.626282 286.625946 287.53186 C 284.365356 290.343506 281.056519 291.241394 277.634918 289.375854 C 273.454742 287.09668 273.073486 283.242371 276.812866 278.971558 C 284.865356 269.774536 290.553253 259.388062 292.940491 247.363098 C 296.04303 231.735077 293.534821 216.93988 285.885406 202.981812 C 281.452728 194.893448 282.724915 191.7117 291.709473 188.174515 C 308.292236 208.525009 314.182251 242.83754 297.932526 271.93277 Z"/>
    <path id="path3" fill="#f6f6f6" stroke="none" d="M 245.270752 222.901016 C 238.986877 219.727844 238.294067 216.47467 242.660141 211.60318 C 247.982986 205.664032 253.423737 199.830612 258.79541 193.935104 C 261.29007 191.197235 264.315613 190.536819 267.215881 192.730286 C 270.303223 195.065125 270.817749 198.560333 268.283569 201.511093 C 262.451019 208.302521 256.358826 214.878082 250.17543 221.3535 C 249.193573 222.381729 247.189713 222.434113 245.270752 222.901016 Z"/>
    <path id="path4" fill="#e9e9e9" stroke="none" d="M 284.757446 180.983215 C 284.374603 182.275024 284.150208 183.288651 283.613098 184.093811 C 281.752228 186.883484 279.212372 189.273102 275.818268 187.680267 C 274.222137 186.931229 272.27359 183.53743 272.793304 182.367889 C 273.948364 179.768402 276.172302 176.821136 278.673126 175.849182 C 281.852356 174.61348 284.18689 177.109222 284.757446 180.983215 Z"/>
</svg>
